<mxfile host="app.diagrams.net" modified="2023-01-17T23:03:07.982Z" agent="5.0 (Macintosh; Intel Mac OS X 10_15_7) AppleWebKit/537.36 (KHTML, like Gecko) Chrome/108.0.0.0 Safari/537.36" etag="earIs1c52r11W0614IIR" version="20.7.4" type="github">
  <diagram name="Page-1" id="c7558073-3199-34d8-9f00-42111426c3f3">
    <mxGraphModel dx="512" dy="730" grid="1" gridSize="10" guides="1" tooltips="1" connect="1" arrows="1" fold="1" page="1" pageScale="1" pageWidth="1019" pageHeight="370" background="#ffffff" math="1" shadow="0">
      <root>
        <mxCell id="0" />
        <mxCell id="1" parent="0" />
        <mxCell id="U3BUplj-x7eQxfh4RS7O-1" value="" style="group" vertex="1" connectable="0" parent="1">
          <mxGeometry x="10.00000000000006" y="74.99882352941177" width="491.56191082802536" height="29.12117647058824" as="geometry" />
        </mxCell>
        <mxCell id="kpd2LytfiKgkB2pnJVpS-15" value="" style="group" parent="U3BUplj-x7eQxfh4RS7O-1" vertex="1" connectable="0">
          <mxGeometry x="120.11636942675153" width="371.44554140127383" height="29.12117647058824" as="geometry" />
        </mxCell>
        <mxCell id="kpd2LytfiKgkB2pnJVpS-18" value="P&lt;span style=&quot;font-size: 12.5px;&quot;&gt;&lt;sub&gt;3&lt;/sub&gt;&lt;/span&gt;" style="rounded=1;whiteSpace=wrap;html=1;strokeWidth=2;fontFamily=Times New Roman;fontSize=15;fillColor=#1ba1e2;fontColor=#000000;strokeColor=#006EAF;" parent="kpd2LytfiKgkB2pnJVpS-15" vertex="1">
          <mxGeometry x="82.54777070063687" y="0.0035294117647026724" width="41.273885350318466" height="29.11764705882353" as="geometry" />
        </mxCell>
        <mxCell id="kpd2LytfiKgkB2pnJVpS-19" value="P&lt;span style=&quot;font-size: 12.5px;&quot;&gt;&lt;sub&gt;4&lt;/sub&gt;&lt;/span&gt;" style="rounded=1;whiteSpace=wrap;html=1;strokeWidth=2;fontFamily=Times New Roman;fontSize=15;fillColor=#dae8fc;strokeColor=#6c8ebf;fontColor=#000000;" parent="kpd2LytfiKgkB2pnJVpS-15" vertex="1">
          <mxGeometry x="123.82140127388527" y="0.0035294117647026724" width="41.273885350318466" height="29.11764705882353" as="geometry" />
        </mxCell>
        <mxCell id="kpd2LytfiKgkB2pnJVpS-23" value="P&lt;span style=&quot;font-size: 12.5px;&quot;&gt;&lt;sub&gt;7&lt;/sub&gt;&lt;/span&gt;" style="rounded=1;whiteSpace=wrap;html=1;strokeWidth=2;fontFamily=Times New Roman;fontSize=15;fillColor=#1ba1e2;strokeColor=#006EAF;fontColor=#000000;" parent="kpd2LytfiKgkB2pnJVpS-15" vertex="1">
          <mxGeometry x="288.90165605095535" width="41.273885350318466" height="29.11764705882353" as="geometry" />
        </mxCell>
        <mxCell id="U3BUplj-x7eQxfh4RS7O-127" value="" style="endArrow=classic;html=1;rounded=0;fontColor=#000000;" edge="1" parent="kpd2LytfiKgkB2pnJVpS-15">
          <mxGeometry width="50" height="50" relative="1" as="geometry">
            <mxPoint x="438.2936305732484" y="14.251176470588234" as="sourcePoint" />
            <mxPoint x="398.2936305732484" y="14.251176470588234" as="targetPoint" />
          </mxGeometry>
        </mxCell>
        <mxCell id="kpd2LytfiKgkB2pnJVpS-35" value="Selection 1" style="text;html=1;strokeColor=none;fillColor=none;align=center;verticalAlign=middle;whiteSpace=wrap;rounded=0;labelBorderColor=#FFFFFF;strokeWidth=2;fontFamily=Times New Roman;fontSize=15;fontColor=#000000;" parent="U3BUplj-x7eQxfh4RS7O-1" vertex="1">
          <mxGeometry y="0.0011764705882342241" width="118.53" height="29.12" as="geometry" />
        </mxCell>
        <mxCell id="U3BUplj-x7eQxfh4RS7O-53" value="" style="group" vertex="1" connectable="0" parent="1">
          <mxGeometry x="10.00000000000006" y="124.99882352941177" width="491.56191082802536" height="29.12117647058824" as="geometry" />
        </mxCell>
        <mxCell id="U3BUplj-x7eQxfh4RS7O-54" value="" style="group" vertex="1" connectable="0" parent="U3BUplj-x7eQxfh4RS7O-53">
          <mxGeometry x="120.11636942675153" width="371.44554140127383" height="29.12117647058824" as="geometry" />
        </mxCell>
        <mxCell id="U3BUplj-x7eQxfh4RS7O-57" value="P&lt;span style=&quot;font-size: 12.5px;&quot;&gt;&lt;sub&gt;3&lt;/sub&gt;&lt;/span&gt;" style="rounded=1;whiteSpace=wrap;html=1;strokeWidth=2;fontFamily=Times New Roman;fontSize=15;fillColor=#1ba1e2;fontColor=#000000;strokeColor=#006EAF;" vertex="1" parent="U3BUplj-x7eQxfh4RS7O-54">
          <mxGeometry x="82.54777070063687" y="0.0035294117647026724" width="41.273885350318466" height="29.11764705882353" as="geometry" />
        </mxCell>
        <mxCell id="U3BUplj-x7eQxfh4RS7O-62" value="P&lt;span style=&quot;font-size: 12.5px;&quot;&gt;&lt;sub&gt;7&lt;/sub&gt;&lt;/span&gt;" style="rounded=1;whiteSpace=wrap;html=1;strokeWidth=2;fontFamily=Times New Roman;fontSize=15;fillColor=#1ba1e2;strokeColor=#006EAF;fontColor=#000000;" vertex="1" parent="U3BUplj-x7eQxfh4RS7O-54">
          <mxGeometry x="288.90165605095535" width="41.273885350318466" height="29.11764705882353" as="geometry" />
        </mxCell>
        <mxCell id="U3BUplj-x7eQxfh4RS7O-64" value="Selection 2" style="text;html=1;strokeColor=none;fillColor=none;align=center;verticalAlign=middle;whiteSpace=wrap;rounded=0;labelBorderColor=#FFFFFF;strokeWidth=2;fontFamily=Times New Roman;fontSize=15;fontColor=#000000;" vertex="1" parent="U3BUplj-x7eQxfh4RS7O-53">
          <mxGeometry y="0.0011764705882342241" width="118.53" height="29.12" as="geometry" />
        </mxCell>
        <mxCell id="U3BUplj-x7eQxfh4RS7O-65" value="" style="group" vertex="1" connectable="0" parent="1">
          <mxGeometry x="10.00000000000006" y="174.99882352941177" width="491.56191082802536" height="29.12117647058824" as="geometry" />
        </mxCell>
        <mxCell id="U3BUplj-x7eQxfh4RS7O-66" value="" style="group" vertex="1" connectable="0" parent="U3BUplj-x7eQxfh4RS7O-65">
          <mxGeometry x="120.11636942675153" width="371.44554140127383" height="29.12117647058824" as="geometry" />
        </mxCell>
        <mxCell id="U3BUplj-x7eQxfh4RS7O-67" value="P&lt;sub&gt;1&lt;/sub&gt;" style="rounded=1;whiteSpace=wrap;html=1;strokeWidth=2;fontFamily=Times New Roman;fontSize=15;fillColor=#f5f5f5;fontColor=#333333;strokeColor=#666666;" vertex="1" parent="U3BUplj-x7eQxfh4RS7O-66">
          <mxGeometry y="0.0035294117647026724" width="41.273885350318466" height="29.11764705882353" as="geometry" />
        </mxCell>
        <mxCell id="U3BUplj-x7eQxfh4RS7O-68" value="P&lt;sub&gt;2&lt;/sub&gt;" style="rounded=1;whiteSpace=wrap;html=1;strokeWidth=2;fontFamily=Times New Roman;fontSize=15;fillColor=#f5f5f5;fontColor=#000000;strokeColor=#666666;" vertex="1" parent="U3BUplj-x7eQxfh4RS7O-66">
          <mxGeometry x="41.27388535031844" y="0.0035294117647026724" width="41.273885350318466" height="29.11764705882353" as="geometry" />
        </mxCell>
        <mxCell id="U3BUplj-x7eQxfh4RS7O-69" value="P&lt;span style=&quot;font-size: 12.5px;&quot;&gt;&lt;sub&gt;3&lt;/sub&gt;&lt;/span&gt;" style="rounded=1;whiteSpace=wrap;html=1;strokeWidth=2;fontFamily=Times New Roman;fontSize=15;fillColor=#1ba1e2;fontColor=#000000;strokeColor=#006EAF;" vertex="1" parent="U3BUplj-x7eQxfh4RS7O-66">
          <mxGeometry x="82.54777070063687" y="0.0035294117647026724" width="41.273885350318466" height="29.11764705882353" as="geometry" />
        </mxCell>
        <mxCell id="U3BUplj-x7eQxfh4RS7O-70" value="P&lt;span style=&quot;font-size: 12.5px;&quot;&gt;&lt;sub&gt;4&lt;/sub&gt;&lt;/span&gt;" style="rounded=1;whiteSpace=wrap;html=1;strokeWidth=2;fontFamily=Times New Roman;fontSize=15;fillColor=#dae8fc;strokeColor=#6c8ebf;fontColor=#000000;" vertex="1" parent="U3BUplj-x7eQxfh4RS7O-66">
          <mxGeometry x="123.82140127388527" y="0.0035294117647026724" width="41.273885350318466" height="29.11764705882353" as="geometry" />
        </mxCell>
        <mxCell id="U3BUplj-x7eQxfh4RS7O-74" value="P&lt;span style=&quot;font-size: 12.5px;&quot;&gt;&lt;sub&gt;7&lt;/sub&gt;&lt;/span&gt;" style="rounded=1;whiteSpace=wrap;html=1;strokeWidth=2;fontFamily=Times New Roman;fontSize=15;fillColor=#1ba1e2;strokeColor=#006EAF;fontColor=#000000;" vertex="1" parent="U3BUplj-x7eQxfh4RS7O-66">
          <mxGeometry x="288.90165605095535" width="41.273885350318466" height="29.11764705882353" as="geometry" />
        </mxCell>
        <mxCell id="U3BUplj-x7eQxfh4RS7O-129" value="" style="endArrow=classic;html=1;rounded=0;fontColor=#000000;" edge="1" parent="U3BUplj-x7eQxfh4RS7O-66">
          <mxGeometry width="50" height="50" relative="1" as="geometry">
            <mxPoint x="438.2936305732484" y="14.251176470588234" as="sourcePoint" />
            <mxPoint x="398.2936305732484" y="14.251176470588234" as="targetPoint" />
          </mxGeometry>
        </mxCell>
        <mxCell id="U3BUplj-x7eQxfh4RS7O-76" value="Selection 3" style="text;html=1;strokeColor=none;fillColor=none;align=center;verticalAlign=middle;whiteSpace=wrap;rounded=0;labelBorderColor=#FFFFFF;strokeWidth=2;fontFamily=Times New Roman;fontSize=15;fontColor=#000000;" vertex="1" parent="U3BUplj-x7eQxfh4RS7O-65">
          <mxGeometry y="0.0011764705882342241" width="118.53" height="29.12" as="geometry" />
        </mxCell>
        <mxCell id="U3BUplj-x7eQxfh4RS7O-77" value="" style="group" vertex="1" connectable="0" parent="1">
          <mxGeometry x="10.00000000000006" y="224.99882352941177" width="491.56191082802536" height="29.12117647058824" as="geometry" />
        </mxCell>
        <mxCell id="U3BUplj-x7eQxfh4RS7O-78" value="" style="group" vertex="1" connectable="0" parent="U3BUplj-x7eQxfh4RS7O-77">
          <mxGeometry x="120.11636942675153" width="371.44554140127383" height="29.12117647058824" as="geometry" />
        </mxCell>
        <mxCell id="U3BUplj-x7eQxfh4RS7O-79" value="P&lt;sub&gt;1&lt;/sub&gt;" style="rounded=1;whiteSpace=wrap;html=1;strokeWidth=2;fontFamily=Times New Roman;fontSize=15;fillColor=#f5f5f5;fontColor=#333333;strokeColor=#666666;" vertex="1" parent="U3BUplj-x7eQxfh4RS7O-78">
          <mxGeometry y="0.0035294117647026724" width="41.273885350318466" height="29.11764705882353" as="geometry" />
        </mxCell>
        <mxCell id="U3BUplj-x7eQxfh4RS7O-80" value="P&lt;sub&gt;2&lt;/sub&gt;" style="rounded=1;whiteSpace=wrap;html=1;strokeWidth=2;fontFamily=Times New Roman;fontSize=15;fillColor=#f5f5f5;fontColor=#000000;strokeColor=#666666;" vertex="1" parent="U3BUplj-x7eQxfh4RS7O-78">
          <mxGeometry x="41.27388535031844" y="0.0035294117647026724" width="41.273885350318466" height="29.11764705882353" as="geometry" />
        </mxCell>
        <mxCell id="U3BUplj-x7eQxfh4RS7O-81" value="P&lt;span style=&quot;font-size: 12.5px;&quot;&gt;&lt;sub&gt;3&lt;/sub&gt;&lt;/span&gt;" style="rounded=1;whiteSpace=wrap;html=1;strokeWidth=2;fontFamily=Times New Roman;fontSize=15;fillColor=#1ba1e2;fontColor=#000000;strokeColor=#006EAF;" vertex="1" parent="U3BUplj-x7eQxfh4RS7O-78">
          <mxGeometry x="82.54777070063687" y="0.0035294117647026724" width="41.273885350318466" height="29.11764705882353" as="geometry" />
        </mxCell>
        <mxCell id="U3BUplj-x7eQxfh4RS7O-86" value="P&lt;span style=&quot;font-size: 12.5px;&quot;&gt;&lt;sub&gt;7&lt;/sub&gt;&lt;/span&gt;" style="rounded=1;whiteSpace=wrap;html=1;strokeWidth=2;fontFamily=Times New Roman;fontSize=15;fillColor=#1ba1e2;strokeColor=#006EAF;fontColor=#000000;" vertex="1" parent="U3BUplj-x7eQxfh4RS7O-78">
          <mxGeometry x="288.90165605095535" width="41.273885350318466" height="29.11764705882353" as="geometry" />
        </mxCell>
        <mxCell id="U3BUplj-x7eQxfh4RS7O-88" value="Selection 4" style="text;html=1;strokeColor=none;fillColor=none;align=center;verticalAlign=middle;whiteSpace=wrap;rounded=0;labelBorderColor=#FFFFFF;strokeWidth=2;fontFamily=Times New Roman;fontSize=15;fontColor=#000000;" vertex="1" parent="U3BUplj-x7eQxfh4RS7O-77">
          <mxGeometry y="0.0011764705882342241" width="118.53" height="29.12" as="geometry" />
        </mxCell>
        <mxCell id="U3BUplj-x7eQxfh4RS7O-89" value="" style="group" vertex="1" connectable="0" parent="1">
          <mxGeometry x="10.00000000000006" y="274.99882352941177" width="491.56191082802536" height="29.12117647058824" as="geometry" />
        </mxCell>
        <mxCell id="U3BUplj-x7eQxfh4RS7O-90" value="" style="group" vertex="1" connectable="0" parent="U3BUplj-x7eQxfh4RS7O-89">
          <mxGeometry x="120.11636942675153" width="371.44554140127383" height="29.12117647058824" as="geometry" />
        </mxCell>
        <mxCell id="U3BUplj-x7eQxfh4RS7O-91" value="P&lt;sub&gt;1&lt;/sub&gt;" style="rounded=1;whiteSpace=wrap;html=1;strokeWidth=2;fontFamily=Times New Roman;fontSize=15;fillColor=#f5f5f5;fontColor=#333333;strokeColor=#666666;" vertex="1" parent="U3BUplj-x7eQxfh4RS7O-90">
          <mxGeometry y="0.0035294117647026724" width="41.273885350318466" height="29.11764705882353" as="geometry" />
        </mxCell>
        <mxCell id="U3BUplj-x7eQxfh4RS7O-92" value="P&lt;sub&gt;2&lt;/sub&gt;" style="rounded=1;whiteSpace=wrap;html=1;strokeWidth=2;fontFamily=Times New Roman;fontSize=15;fillColor=#f5f5f5;fontColor=#000000;strokeColor=#666666;" vertex="1" parent="U3BUplj-x7eQxfh4RS7O-90">
          <mxGeometry x="41.27388535031844" y="0.0035294117647026724" width="41.273885350318466" height="29.11764705882353" as="geometry" />
        </mxCell>
        <mxCell id="U3BUplj-x7eQxfh4RS7O-93" value="P&lt;span style=&quot;font-size: 12.5px;&quot;&gt;&lt;sub&gt;3&lt;/sub&gt;&lt;/span&gt;" style="rounded=1;whiteSpace=wrap;html=1;strokeWidth=2;fontFamily=Times New Roman;fontSize=15;fillColor=#1ba1e2;fontColor=#000000;strokeColor=#006EAF;" vertex="1" parent="U3BUplj-x7eQxfh4RS7O-90">
          <mxGeometry x="82.54777070063687" y="0.0035294117647026724" width="41.273885350318466" height="29.11764705882353" as="geometry" />
        </mxCell>
        <mxCell id="U3BUplj-x7eQxfh4RS7O-94" value="P&lt;span style=&quot;font-size: 12.5px;&quot;&gt;&lt;sub&gt;4&lt;/sub&gt;&lt;/span&gt;" style="rounded=1;whiteSpace=wrap;html=1;strokeWidth=2;fontFamily=Times New Roman;fontSize=15;fillColor=#dae8fc;strokeColor=#6c8ebf;fontColor=#000000;" vertex="1" parent="U3BUplj-x7eQxfh4RS7O-90">
          <mxGeometry x="123.82140127388527" y="0.0035294117647026724" width="41.273885350318466" height="29.11764705882353" as="geometry" />
        </mxCell>
        <mxCell id="U3BUplj-x7eQxfh4RS7O-96" value="P&lt;span style=&quot;font-size: 12.5px;&quot;&gt;&lt;sub&gt;5&lt;/sub&gt;&lt;/span&gt;" style="rounded=1;whiteSpace=wrap;html=1;strokeWidth=2;fontFamily=Times New Roman;fontSize=15;fillColor=#fad9d5;strokeColor=#ae4132;fontColor=#000000;" vertex="1" parent="U3BUplj-x7eQxfh4RS7O-90">
          <mxGeometry x="206.36165605095545" width="41.273885350318466" height="29.11764705882353" as="geometry" />
        </mxCell>
        <mxCell id="U3BUplj-x7eQxfh4RS7O-97" value="P&lt;span style=&quot;font-size: 12.5px;&quot;&gt;&lt;sub&gt;6&lt;/sub&gt;&lt;/span&gt;" style="rounded=1;whiteSpace=wrap;html=1;strokeWidth=2;fontFamily=Times New Roman;fontSize=15;fillColor=#fad9d5;strokeColor=#ae4132;fontColor=#000000;" vertex="1" parent="U3BUplj-x7eQxfh4RS7O-90">
          <mxGeometry x="247.63165605095543" width="41.273885350318466" height="29.11764705882353" as="geometry" />
        </mxCell>
        <mxCell id="U3BUplj-x7eQxfh4RS7O-98" value="P&lt;span style=&quot;font-size: 12.5px;&quot;&gt;&lt;sub&gt;7&lt;/sub&gt;&lt;/span&gt;" style="rounded=1;whiteSpace=wrap;html=1;strokeWidth=2;fontFamily=Times New Roman;fontSize=15;fillColor=#1ba1e2;strokeColor=#006EAF;fontColor=#000000;" vertex="1" parent="U3BUplj-x7eQxfh4RS7O-90">
          <mxGeometry x="288.90165605095535" width="41.273885350318466" height="29.11764705882353" as="geometry" />
        </mxCell>
        <mxCell id="U3BUplj-x7eQxfh4RS7O-100" value="Selection 5" style="text;html=1;strokeColor=none;fillColor=none;align=center;verticalAlign=middle;whiteSpace=wrap;rounded=0;labelBorderColor=#FFFFFF;strokeWidth=2;fontFamily=Times New Roman;fontSize=15;fontColor=#000000;" vertex="1" parent="U3BUplj-x7eQxfh4RS7O-89">
          <mxGeometry y="0.0011764705882342241" width="118.53" height="29.12" as="geometry" />
        </mxCell>
        <mxCell id="U3BUplj-x7eQxfh4RS7O-101" value="" style="group" vertex="1" connectable="0" parent="1">
          <mxGeometry x="10.00000000000006" y="324.99882352941177" width="491.56191082802536" height="29.12117647058824" as="geometry" />
        </mxCell>
        <mxCell id="U3BUplj-x7eQxfh4RS7O-102" value="" style="group" vertex="1" connectable="0" parent="U3BUplj-x7eQxfh4RS7O-101">
          <mxGeometry x="120.11636942675153" width="371.44554140127383" height="29.12117647058824" as="geometry" />
        </mxCell>
        <mxCell id="U3BUplj-x7eQxfh4RS7O-103" value="P&lt;sub&gt;1&lt;/sub&gt;" style="rounded=1;whiteSpace=wrap;html=1;strokeWidth=2;fontFamily=Times New Roman;fontSize=15;fillColor=#f5f5f5;fontColor=#333333;strokeColor=#666666;" vertex="1" parent="U3BUplj-x7eQxfh4RS7O-102">
          <mxGeometry y="0.0035294117647026724" width="41.273885350318466" height="29.11764705882353" as="geometry" />
        </mxCell>
        <mxCell id="U3BUplj-x7eQxfh4RS7O-104" value="P&lt;sub&gt;2&lt;/sub&gt;" style="rounded=1;whiteSpace=wrap;html=1;strokeWidth=2;fontFamily=Times New Roman;fontSize=15;fillColor=#f5f5f5;fontColor=#000000;strokeColor=#666666;" vertex="1" parent="U3BUplj-x7eQxfh4RS7O-102">
          <mxGeometry x="41.27388535031844" y="0.0035294117647026724" width="41.273885350318466" height="29.11764705882353" as="geometry" />
        </mxCell>
        <mxCell id="U3BUplj-x7eQxfh4RS7O-105" value="P&lt;span style=&quot;font-size: 12.5px;&quot;&gt;&lt;sub&gt;3&lt;/sub&gt;&lt;/span&gt;" style="rounded=1;whiteSpace=wrap;html=1;strokeWidth=2;fontFamily=Times New Roman;fontSize=15;fillColor=#1ba1e2;fontColor=#000000;strokeColor=#006EAF;" vertex="1" parent="U3BUplj-x7eQxfh4RS7O-102">
          <mxGeometry x="82.54777070063687" y="0.0035294117647026724" width="41.273885350318466" height="29.11764705882353" as="geometry" />
        </mxCell>
        <mxCell id="U3BUplj-x7eQxfh4RS7O-108" value="P&lt;span style=&quot;font-size: 12.5px;&quot;&gt;&lt;sub&gt;5&lt;/sub&gt;&lt;/span&gt;" style="rounded=1;whiteSpace=wrap;html=1;strokeWidth=2;fontFamily=Times New Roman;fontSize=15;fillColor=#fad9d5;strokeColor=#ae4132;fontColor=#000000;" vertex="1" parent="U3BUplj-x7eQxfh4RS7O-102">
          <mxGeometry x="206.36165605095545" width="41.273885350318466" height="29.11764705882353" as="geometry" />
        </mxCell>
        <mxCell id="U3BUplj-x7eQxfh4RS7O-109" value="P&lt;span style=&quot;font-size: 12.5px;&quot;&gt;&lt;sub&gt;6&lt;/sub&gt;&lt;/span&gt;" style="rounded=1;whiteSpace=wrap;html=1;strokeWidth=2;fontFamily=Times New Roman;fontSize=15;fillColor=#fad9d5;strokeColor=#ae4132;fontColor=#000000;" vertex="1" parent="U3BUplj-x7eQxfh4RS7O-102">
          <mxGeometry x="247.63165605095543" width="41.273885350318466" height="29.11764705882353" as="geometry" />
        </mxCell>
        <mxCell id="U3BUplj-x7eQxfh4RS7O-110" value="P&lt;span style=&quot;font-size: 12.5px;&quot;&gt;&lt;sub&gt;7&lt;/sub&gt;&lt;/span&gt;" style="rounded=1;whiteSpace=wrap;html=1;strokeWidth=2;fontFamily=Times New Roman;fontSize=15;fillColor=#1ba1e2;strokeColor=#006EAF;fontColor=#000000;" vertex="1" parent="U3BUplj-x7eQxfh4RS7O-102">
          <mxGeometry x="288.90165605095535" width="41.273885350318466" height="29.11764705882353" as="geometry" />
        </mxCell>
        <mxCell id="U3BUplj-x7eQxfh4RS7O-112" value="Selection 6" style="text;html=1;strokeColor=none;fillColor=none;align=center;verticalAlign=middle;whiteSpace=wrap;rounded=0;labelBorderColor=#FFFFFF;strokeWidth=2;fontFamily=Times New Roman;fontSize=15;fontColor=#000000;" vertex="1" parent="U3BUplj-x7eQxfh4RS7O-101">
          <mxGeometry y="0.0011764705882342241" width="118.53" height="29.12" as="geometry" />
        </mxCell>
        <mxCell id="U3BUplj-x7eQxfh4RS7O-115" value="" style="group" vertex="1" connectable="0" parent="1">
          <mxGeometry x="129.9963694267516" y="14.998823529411766" width="371.44554140127383" height="29.12117647058824" as="geometry" />
        </mxCell>
        <mxCell id="U3BUplj-x7eQxfh4RS7O-116" value="P&lt;sub&gt;1&lt;/sub&gt;" style="rounded=1;whiteSpace=wrap;html=1;strokeWidth=2;fontFamily=Times New Roman;fontSize=15;fillColor=#f5f5f5;fontColor=#333333;strokeColor=#666666;" vertex="1" parent="U3BUplj-x7eQxfh4RS7O-115">
          <mxGeometry y="0.0035294117647026724" width="41.273885350318466" height="29.11764705882353" as="geometry" />
        </mxCell>
        <mxCell id="U3BUplj-x7eQxfh4RS7O-117" value="P&lt;sub&gt;2&lt;/sub&gt;" style="rounded=1;whiteSpace=wrap;html=1;strokeWidth=2;fontFamily=Times New Roman;fontSize=15;fillColor=#f5f5f5;fontColor=#000000;strokeColor=#666666;" vertex="1" parent="U3BUplj-x7eQxfh4RS7O-115">
          <mxGeometry x="41.27388535031844" y="0.0035294117647026724" width="41.273885350318466" height="29.11764705882353" as="geometry" />
        </mxCell>
        <mxCell id="U3BUplj-x7eQxfh4RS7O-118" value="P&lt;span style=&quot;font-size: 12.5px;&quot;&gt;&lt;sub&gt;3&lt;/sub&gt;&lt;/span&gt;" style="rounded=1;whiteSpace=wrap;html=1;strokeWidth=2;fontFamily=Times New Roman;fontSize=15;fillColor=#1ba1e2;fontColor=#000000;strokeColor=#006EAF;" vertex="1" parent="U3BUplj-x7eQxfh4RS7O-115">
          <mxGeometry x="82.54777070063687" y="0.0035294117647026724" width="41.273885350318466" height="29.11764705882353" as="geometry" />
        </mxCell>
        <mxCell id="U3BUplj-x7eQxfh4RS7O-119" value="P&lt;span style=&quot;font-size: 12.5px;&quot;&gt;&lt;sub&gt;4&lt;/sub&gt;&lt;/span&gt;" style="rounded=1;whiteSpace=wrap;html=1;strokeWidth=2;fontFamily=Times New Roman;fontSize=15;fillColor=#dae8fc;strokeColor=#6c8ebf;fontColor=#000000;" vertex="1" parent="U3BUplj-x7eQxfh4RS7O-115">
          <mxGeometry x="123.82140127388527" y="0.0035294117647026724" width="41.273885350318466" height="29.11764705882353" as="geometry" />
        </mxCell>
        <mxCell id="U3BUplj-x7eQxfh4RS7O-120" value="P&lt;span style=&quot;font-size: 12.5px;&quot;&gt;&lt;sub&gt;5&lt;/sub&gt;&lt;/span&gt;" style="rounded=1;whiteSpace=wrap;html=1;strokeWidth=2;fontFamily=Times New Roman;fontSize=15;fillColor=#d80073;fontColor=#000000;strokeColor=#A50040;" vertex="1" parent="U3BUplj-x7eQxfh4RS7O-115">
          <mxGeometry x="165.0916560509554" width="41.273885350318466" height="29.11764705882353" as="geometry" />
        </mxCell>
        <mxCell id="U3BUplj-x7eQxfh4RS7O-121" value="P&lt;span style=&quot;font-size: 12.5px;&quot;&gt;&lt;sub&gt;5&lt;/sub&gt;&lt;/span&gt;" style="rounded=1;whiteSpace=wrap;html=1;strokeWidth=2;fontFamily=Times New Roman;fontSize=15;fillColor=#fad9d5;strokeColor=#ae4132;fontColor=#000000;" vertex="1" parent="U3BUplj-x7eQxfh4RS7O-115">
          <mxGeometry x="206.36165605095545" width="41.273885350318466" height="29.11764705882353" as="geometry" />
        </mxCell>
        <mxCell id="U3BUplj-x7eQxfh4RS7O-122" value="P&lt;span style=&quot;font-size: 12.5px;&quot;&gt;&lt;sub&gt;6&lt;/sub&gt;&lt;/span&gt;" style="rounded=1;whiteSpace=wrap;html=1;strokeWidth=2;fontFamily=Times New Roman;fontSize=15;fillColor=#fad9d5;strokeColor=#ae4132;fontColor=#000000;" vertex="1" parent="U3BUplj-x7eQxfh4RS7O-115">
          <mxGeometry x="247.63165605095543" width="41.273885350318466" height="29.11764705882353" as="geometry" />
        </mxCell>
        <mxCell id="U3BUplj-x7eQxfh4RS7O-123" value="P&lt;span style=&quot;font-size: 12.5px;&quot;&gt;&lt;sub&gt;7&lt;/sub&gt;&lt;/span&gt;" style="rounded=1;whiteSpace=wrap;html=1;strokeWidth=2;fontFamily=Times New Roman;fontSize=15;fillColor=#1ba1e2;strokeColor=#006EAF;fontColor=#000000;" vertex="1" parent="U3BUplj-x7eQxfh4RS7O-115">
          <mxGeometry x="288.90165605095535" width="41.273885350318466" height="29.11764705882353" as="geometry" />
        </mxCell>
        <mxCell id="U3BUplj-x7eQxfh4RS7O-124" value="P&lt;span style=&quot;font-size: 12.5px;&quot;&gt;&lt;sub&gt;8&lt;/sub&gt;&lt;/span&gt;" style="rounded=1;whiteSpace=wrap;html=1;strokeWidth=2;fontFamily=Times New Roman;fontSize=15;fillColor=#d80073;fontColor=#000000;strokeColor=#A50040;" vertex="1" parent="U3BUplj-x7eQxfh4RS7O-115">
          <mxGeometry x="330.1716560509554" width="41.273885350318466" height="29.11764705882353" as="geometry" />
        </mxCell>
        <mxCell id="U3BUplj-x7eQxfh4RS7O-125" value="Passages" style="text;html=1;strokeColor=none;fillColor=none;align=center;verticalAlign=middle;whiteSpace=wrap;rounded=0;labelBorderColor=#FFFFFF;strokeWidth=2;fontFamily=Times New Roman;fontSize=15;fontColor=#000000;" vertex="1" parent="1">
          <mxGeometry x="10.000000000000032" y="15" width="118.53" height="29.12" as="geometry" />
        </mxCell>
        <mxCell id="U3BUplj-x7eQxfh4RS7O-128" value="" style="endArrow=classic;html=1;rounded=0;fontColor=#000000;" edge="1" parent="1">
          <mxGeometry width="50" height="50" relative="1" as="geometry">
            <mxPoint x="568.41" y="139.26" as="sourcePoint" />
            <mxPoint x="528.41" y="139.26" as="targetPoint" />
          </mxGeometry>
        </mxCell>
        <mxCell id="U3BUplj-x7eQxfh4RS7O-130" value="" style="endArrow=classic;html=1;rounded=0;fontColor=#000000;" edge="1" parent="1">
          <mxGeometry width="50" height="50" relative="1" as="geometry">
            <mxPoint x="568.41" y="239.26" as="sourcePoint" />
            <mxPoint x="528.41" y="239.26" as="targetPoint" />
          </mxGeometry>
        </mxCell>
        <mxCell id="U3BUplj-x7eQxfh4RS7O-131" value="" style="endArrow=classic;html=1;rounded=0;fontColor=#000000;" edge="1" parent="1">
          <mxGeometry width="50" height="50" relative="1" as="geometry">
            <mxPoint x="568.41" y="289.26" as="sourcePoint" />
            <mxPoint x="528.41" y="289.26" as="targetPoint" />
          </mxGeometry>
        </mxCell>
        <mxCell id="U3BUplj-x7eQxfh4RS7O-132" value="" style="endArrow=classic;html=1;rounded=0;fontColor=#000000;" edge="1" parent="1">
          <mxGeometry width="50" height="50" relative="1" as="geometry">
            <mxPoint x="568.41" y="339.26" as="sourcePoint" />
            <mxPoint x="528.41" y="339.26" as="targetPoint" />
          </mxGeometry>
        </mxCell>
        <mxCell id="U3BUplj-x7eQxfh4RS7O-139" value="&lt;font color=&quot;#000000&quot;&gt;definite positive&lt;/font&gt;" style="rounded=1;whiteSpace=wrap;html=1;strokeWidth=2;fontFamily=Times New Roman;fontSize=15;fillColor=#1ba1e2;strokeColor=#006EAF;labelBorderColor=#FFFFFF;fontColor=#ffffff;opacity=20;" vertex="1" parent="1">
          <mxGeometry x="578.41" y="75" width="117" height="29.12" as="geometry" />
        </mxCell>
        <mxCell id="U3BUplj-x7eQxfh4RS7O-140" value="semi-positive" style="rounded=1;whiteSpace=wrap;html=1;strokeWidth=2;fontFamily=Times New Roman;fontSize=15;fillColor=#dae8fc;strokeColor=#6c8ebf;labelBorderColor=#FFFFFF;fontColor=#000000;opacity=20;" vertex="1" parent="1">
          <mxGeometry x="715.29" y="75" width="86.75" height="29.12" as="geometry" />
        </mxCell>
        <mxCell id="U3BUplj-x7eQxfh4RS7O-141" value="&lt;font color=&quot;#000000&quot;&gt;definite positive&lt;/font&gt;" style="rounded=1;whiteSpace=wrap;html=1;strokeWidth=2;fontFamily=Times New Roman;fontSize=15;fillColor=#1ba1e2;strokeColor=#006EAF;labelBorderColor=#FFFFFF;fontColor=#ffffff;opacity=20;" vertex="1" parent="1">
          <mxGeometry x="578.41" y="125" width="117" height="29.12" as="geometry" />
        </mxCell>
        <mxCell id="U3BUplj-x7eQxfh4RS7O-142" value="&lt;font color=&quot;#000000&quot;&gt;definite positive&lt;/font&gt;" style="rounded=1;whiteSpace=wrap;html=1;strokeWidth=2;fontFamily=Times New Roman;fontSize=15;fillColor=#1ba1e2;strokeColor=#006EAF;labelBorderColor=#FFFFFF;fontColor=#ffffff;opacity=20;" vertex="1" parent="1">
          <mxGeometry x="578.41" y="175" width="117" height="29.12" as="geometry" />
        </mxCell>
        <mxCell id="U3BUplj-x7eQxfh4RS7O-143" value="semi-positive" style="rounded=1;whiteSpace=wrap;html=1;strokeWidth=2;fontFamily=Times New Roman;fontSize=15;fillColor=#dae8fc;strokeColor=#6c8ebf;labelBorderColor=#FFFFFF;fontColor=#000000;opacity=20;" vertex="1" parent="1">
          <mxGeometry x="715.29" y="175" width="86.75" height="29.12" as="geometry" />
        </mxCell>
        <mxCell id="U3BUplj-x7eQxfh4RS7O-144" value="Initial 0s" style="rounded=1;whiteSpace=wrap;html=1;strokeWidth=2;fontFamily=Times New Roman;fontSize=15;fillColor=#f5f5f5;strokeColor=#666666;labelBorderColor=#FFFFFF;opacity=20;fontColor=#333333;" vertex="1" parent="1">
          <mxGeometry x="818.41" y="225" width="68.75" height="29.12" as="geometry" />
        </mxCell>
        <mxCell id="U3BUplj-x7eQxfh4RS7O-145" value="&lt;font color=&quot;#000000&quot;&gt;definite positive&lt;/font&gt;" style="rounded=1;whiteSpace=wrap;html=1;strokeWidth=2;fontFamily=Times New Roman;fontSize=15;fillColor=#1ba1e2;strokeColor=#006EAF;labelBorderColor=#FFFFFF;fontColor=#ffffff;opacity=20;" vertex="1" parent="1">
          <mxGeometry x="578.41" y="225" width="117" height="29.12" as="geometry" />
        </mxCell>
        <mxCell id="U3BUplj-x7eQxfh4RS7O-146" value="Initial 0s" style="rounded=1;whiteSpace=wrap;html=1;strokeWidth=2;fontFamily=Times New Roman;fontSize=15;fillColor=#f5f5f5;strokeColor=#666666;labelBorderColor=#FFFFFF;opacity=20;fontColor=#333333;" vertex="1" parent="1">
          <mxGeometry x="818.41" y="175" width="68.75" height="29.12" as="geometry" />
        </mxCell>
        <mxCell id="U3BUplj-x7eQxfh4RS7O-147" value="&lt;font color=&quot;#000000&quot;&gt;definite positive&lt;/font&gt;" style="rounded=1;whiteSpace=wrap;html=1;strokeWidth=2;fontFamily=Times New Roman;fontSize=15;fillColor=#1ba1e2;strokeColor=#006EAF;labelBorderColor=#FFFFFF;fontColor=#ffffff;opacity=20;" vertex="1" parent="1">
          <mxGeometry x="578.41" y="275" width="117" height="29.12" as="geometry" />
        </mxCell>
        <mxCell id="U3BUplj-x7eQxfh4RS7O-148" value="semi-positive" style="rounded=1;whiteSpace=wrap;html=1;strokeWidth=2;fontFamily=Times New Roman;fontSize=15;fillColor=#dae8fc;strokeColor=#6c8ebf;labelBorderColor=#FFFFFF;fontColor=#000000;opacity=20;" vertex="1" parent="1">
          <mxGeometry x="715.29" y="275" width="86.75" height="29.12" as="geometry" />
        </mxCell>
        <mxCell id="U3BUplj-x7eQxfh4RS7O-149" value="Initial 0s" style="rounded=1;whiteSpace=wrap;html=1;strokeWidth=2;fontFamily=Times New Roman;fontSize=15;fillColor=#f5f5f5;strokeColor=#666666;labelBorderColor=#FFFFFF;opacity=20;fontColor=#333333;" vertex="1" parent="1">
          <mxGeometry x="818.41" y="275" width="68.75" height="29.12" as="geometry" />
        </mxCell>
        <mxCell id="U3BUplj-x7eQxfh4RS7O-150" value="semi-negative" style="rounded=1;whiteSpace=wrap;html=1;strokeWidth=2;fontFamily=Times New Roman;fontSize=15;fillColor=#f8cecc;strokeColor=#b85450;labelBorderColor=#FFFFFF;opacity=20;" vertex="1" parent="1">
          <mxGeometry x="908.41" y="275" width="91.75" height="29.12" as="geometry" />
        </mxCell>
        <mxCell id="U3BUplj-x7eQxfh4RS7O-151" value="Initial 0s" style="rounded=1;whiteSpace=wrap;html=1;strokeWidth=2;fontFamily=Times New Roman;fontSize=15;fillColor=#f5f5f5;strokeColor=#666666;labelBorderColor=#FFFFFF;opacity=20;fontColor=#333333;" vertex="1" parent="1">
          <mxGeometry x="818.41" y="325" width="68.75" height="29.12" as="geometry" />
        </mxCell>
        <mxCell id="U3BUplj-x7eQxfh4RS7O-152" value="&lt;font color=&quot;#000000&quot;&gt;definite positive&lt;/font&gt;" style="rounded=1;whiteSpace=wrap;html=1;strokeWidth=2;fontFamily=Times New Roman;fontSize=15;fillColor=#1ba1e2;strokeColor=#006EAF;labelBorderColor=#FFFFFF;fontColor=#ffffff;opacity=20;" vertex="1" parent="1">
          <mxGeometry x="578.41" y="325" width="117" height="29.12" as="geometry" />
        </mxCell>
        <mxCell id="U3BUplj-x7eQxfh4RS7O-153" value="semi-negative" style="rounded=1;whiteSpace=wrap;html=1;strokeWidth=2;fontFamily=Times New Roman;fontSize=15;fillColor=#f8cecc;strokeColor=#b85450;labelBorderColor=#FFFFFF;opacity=20;" vertex="1" parent="1">
          <mxGeometry x="908.41" y="325" width="91.75" height="29.12" as="geometry" />
        </mxCell>
      </root>
    </mxGraphModel>
  </diagram>
</mxfile>
